<svg preserveAspectRatio="none" overflow="visible" style="display: block;" width="16.2483" height="12.9173" viewBox="0 0 16.2483 12.9173" fill="none" xmlns="http://www.w3.org/2000/svg">
<path id="Vector" d="M16.2483 6.45815C16.2483 6.80315 15.9683 7.08315 15.6233 7.08315H2.13246L6.8991 11.8498C7.14327 12.094 7.14327 12.4898 6.8991 12.734C6.77744 12.8557 6.61741 12.9173 6.45741 12.9173C6.29741 12.9173 6.13739 12.8565 6.01572 12.734L0.182388 6.90065C0.124888 6.84315 0.0791667 6.77407 0.0475 6.69741C-0.0158333 6.54491 -0.0158333 6.37241 0.0475 6.21991C0.0791667 6.14324 0.124888 6.07396 0.182388 6.01646L6.01572 0.183125C6.25989 -0.0610417 6.65575 -0.0610417 6.89992 0.183125C7.14408 0.427292 7.14408 0.823154 6.89992 1.06732L2.13327 5.83396H15.6233C15.9683 5.83313 16.2483 6.11315 16.2483 6.45815Z" fill="white"/>
</svg>
