<svg preserveAspectRatio="none" overflow="visible" style="display: block;" width="18" height="18.4719" viewBox="0 0 18 18.4719" fill="none" xmlns="http://www.w3.org/2000/svg">
<path id="Vector" d="M18 14.9719V18.4719H13.5V13.4719H16.5C17.5 13.4719 18 13.9719 18 14.9719ZM1.5 11.4719C0.5 11.4719 0 11.9719 0 12.9719V18.4719H4.5V11.4719H1.5ZM12 9.97185C12 8.97185 11.5 8.47185 10.5 8.47185H7.5C6.5 8.47185 6 8.97185 6 9.97185V18.4719H12V9.97185ZM8.62601 0.231863L7.871 1.75481C7.814 1.86981 7.704 1.94883 7.578 1.96783L5.83501 2.2199C5.51501 2.2659 5.388 2.65786 5.619 2.88286L6.879 4.10589C6.971 4.19489 7.013 4.32386 6.991 4.45086L6.703 6.12285C6.644 6.46285 7.002 6.72182 7.308 6.56182L8.819 5.7708C8.932 5.7118 9.068 5.7118 9.181 5.7708L10.693 6.5628C10.999 6.7228 11.356 6.46383 11.297 6.12383L11.009 4.44988C10.987 4.32388 11.029 4.19491 11.121 4.10491L12.381 2.88189C12.613 2.65689 12.485 2.2648 12.165 2.2188L10.422 1.96685C10.295 1.94885 10.185 1.86884 10.129 1.75384L9.37399 0.230887C9.22099 -0.0771131 8.77901 -0.0771366 8.62601 0.231863Z" fill="#7C0C3E"/>
</svg>
